<svg id="Layer_1" data-name="Layer 1" xmlns="http://www.w3.org/2000/svg" viewBox="0 0 423 376.06"><defs><style>.cls-1{fill:#1e1e1e;stroke:#1e1e1e;stroke-miterlimit:10;stroke-width:9px;}</style></defs><path class="cls-1" d="M10.6,4.67a10.15,10.15,0,0,0-1.83.7,7.77,7.77,0,0,0,0,13.87c1.89.94-.93.88,34.87.88H75.78l.06.27c0,.15,6.87,49.71,15.19,110.12S106.27,240.66,106.36,241a8,8,0,0,0,4,4.74,9.72,9.72,0,0,0,1.89.69c1.29.27,275.4.27,276.69,0a8,8,0,0,0,5.85-5.43c.24-.9,23.75-165.5,23.75-166.35a8.06,8.06,0,0,0-.87-3.42,7.93,7.93,0,0,0-5.29-4.09c-1.3-.27-269.66-.27-271,0a8,8,0,0,0-5.3,4.09,8.19,8.19,0,0,0-.86,3.42c0,.85,18,126.11,18.24,127.11a7.78,7.78,0,0,0,5.89,5.61,7.63,7.63,0,0,0,7.11-2.12,7.31,7.31,0,0,0,2.29-5c0-1.06-.74-5.82-8.44-59.36-4.6-32-8.37-58.21-8.37-58.24s45.79-.06,118.16-.06H401.69l-.06.39c0,.22-4.81,33.61-10.6,74.21L380.48,231H120.69l-.06-.29c0-.14-6.87-49.69-15.19-110.11S90.2,10.48,90.11,10.11a8,8,0,0,0-4-4.75c-1.91-.94,1.35-.87-38.75-.85C17.17,4.5,11.27,4.54,10.6,4.67Z"/><path class="cls-1" d="M165.67,278l-1.89.19a46.9,46.9,0,0,0-41.89,41.91,70.21,70.21,0,0,0,0,9.4,47.08,47.08,0,0,0,41.46,41.89,62.75,62.75,0,0,0,10.44,0A47,47,0,0,0,214.48,334l.27-1.34,20.62-.06c19.63-.06,20.65-.07,21.29-.28a7.86,7.86,0,0,0,0-15.06c-.64-.21-1.66-.22-21.29-.28l-20.61-.06-.27-1.35a47,47,0,0,0-40.58-37.34C172.36,278,166.8,277.85,165.67,278Zm7.26,15.86a29.78,29.78,0,0,1,5.37,1.28,30.44,30.44,0,0,1,12.41,7.7,31,31,0,0,1,8.85,18.11,47,47,0,0,1,0,7.69A31.87,31.87,0,0,1,194.61,342a33,33,0,0,1-8.52,8.64,32,32,0,0,1-13.71,5.17,47,47,0,0,1-7.69,0,31.7,31.7,0,0,1-15.62-6.59,34.53,34.53,0,0,1-6.38-6.88,31.27,31.27,0,0,1,22.86-48.66,45.45,45.45,0,0,1,7.38.17Z"/><path class="cls-1" d="M329.71,278l-1.89.19a48.39,48.39,0,0,0-10.4,2.26,47,47,0,0,0-31,36.45,40,40,0,0,0-.61,7.9c0,1.87.07,3.86.16,4.7a47.06,47.06,0,0,0,41.46,41.89,62.63,62.63,0,0,0,10.43,0,53.4,53.4,0,0,0,6.4-1.19,47,47,0,0,0,35-40.7,70.21,70.21,0,0,0,0-9.4A47,47,0,0,0,338,278.19C336.4,278,330.84,277.85,329.71,278ZM337,293.81a30,30,0,0,1,5.37,1.28,30.44,30.44,0,0,1,12.41,7.7,31,31,0,0,1,8.85,18.11,37.13,37.13,0,0,1,.16,3.85,28.69,28.69,0,0,1-1.51,9.76,30.61,30.61,0,0,1-7.5,12.2,31,31,0,0,1-18.33,9.06,47,47,0,0,1-7.69,0,31.66,31.66,0,0,1-15.62-6.59,34.24,34.24,0,0,1-6.38-6.88,31.26,31.26,0,0,1,22.86-48.66,45.45,45.45,0,0,1,7.38.17Z"/></svg>