<svg id="Layer_1" data-name="Layer 1" fill="#69b79a" xmlns="http://www.w3.org/2000/svg" viewBox="0 0 740 656.11"><path d="M10.91.32A17.91,17.91,0,0,0,7.64,1.56,14,14,0,0,0,0,14,14,14,0,0,0,7.64,26.34C11,28,6,27.91,70,27.91h57.45l.1.48c0,.29,12.29,88.86,27.17,196.85s27.22,196.89,27.4,197.54a14.21,14.21,0,0,0,7.07,8.47,17.66,17.66,0,0,0,3.38,1.24c2.31.48,492.25.48,494.57,0a14.25,14.25,0,0,0,10.45-9.71C698,421.17,740,127,740,125.43a14.5,14.5,0,0,0-1.55-6.11A14.2,14.2,0,0,0,729,112c-2.31-.48-506.22-.48-508.53,0a14.34,14.34,0,0,0-9.47,7.31,14.5,14.5,0,0,0-1.55,6.11c0,1.53,32.14,225.43,32.62,227.22a13.89,13.89,0,0,0,10.51,10,13.63,13.63,0,0,0,12.72-3.77,13.11,13.11,0,0,0,4.08-9c.09-1.9-1.09-10.41-14.85-106.09-8.23-57.2-15-104.07-15-104.11s105.85-.11,235.2-.11H710l-.11.7c-.07.39-8.6,60.08-19,132.64L672,404.9H207.69l-.11-.51c0-.26-12.28-88.83-27.16-196.82S153.19,10.68,153,10A14.37,14.37,0,0,0,146,1.54C142.52-.14,148.35,0,76.68,0,22.65,0,12.11.08,10.91.32Z"/><path d="M288.08,488.8l-3.38.33A83.83,83.83,0,0,0,209.83,564a127.27,127.27,0,0,0,0,16.8,83.35,83.35,0,0,0,24.5,51.09q20.38,20.16,49.61,23.78a109.58,109.58,0,0,0,18.65,0c19.22-2.37,35.91-10.34,49.28-23.56a82.56,82.56,0,0,0,23.45-43.24l.48-2.4,36.87-.11c35.08-.1,36.91-.13,38.05-.5a14,14,0,0,0,0-26.92c-1.14-.37-3-.39-38.05-.5l-36.85-.11-.48-2.4a83.93,83.93,0,0,0-72.53-66.76A144.87,144.87,0,0,0,288.08,488.8Zm13,28.34a53.64,53.64,0,0,1,9.6,2.29,54.4,54.4,0,0,1,22.19,13.77,55.42,55.42,0,0,1,15.81,32.37,85.18,85.18,0,0,1,0,13.74,56.84,56.84,0,0,1-8.85,23.89,59,59,0,0,1-15.23,15.45,57.39,57.39,0,0,1-24.5,9.25,85.18,85.18,0,0,1-13.74,0,56.8,56.8,0,0,1-27.93-11.78A62.24,62.24,0,0,1,247,603.81a55.9,55.9,0,0,1,40.86-87A80.74,80.74,0,0,1,301.06,517.14Z"/><path d="M581.29,488.8l-3.38.33a87.19,87.19,0,0,0-18.59,4,84,84,0,0,0-55.48,65.17,71.86,71.86,0,0,0-1.09,14.11c0,3.34.13,6.9.28,8.4a83.41,83.41,0,0,0,24.5,51.09q20.4,20.16,49.61,23.78a109.69,109.69,0,0,0,18.66,0,94.39,94.39,0,0,0,11.43-2.11,84.07,84.07,0,0,0,62.57-72.76,127.27,127.27,0,0,0,0-16.8A84,84,0,0,0,596,489.21,144.68,144.68,0,0,0,581.29,488.8Zm13,28.34a53.64,53.64,0,0,1,9.6,2.29,54.43,54.43,0,0,1,22.18,13.77,55.37,55.37,0,0,1,15.82,32.37c.15,1.13.29,4.06.29,6.87a51,51,0,0,1-2.71,17.46,54.67,54.67,0,0,1-13.4,21.79c-8.9,9-19.7,14.35-32.76,16.21a85.3,85.3,0,0,1-13.75,0,56.77,56.77,0,0,1-27.92-11.78,62,62,0,0,1-11.41-12.31,55.9,55.9,0,0,1,40.86-87A80.76,80.76,0,0,1,594.27,517.14Z"/></svg>