<?xml version="1.0" encoding="UTF-8" standalone="no"?>
<!DOCTYPE svg PUBLIC "-//W3C//DTD SVG 20010904//EN" "http://www.w3.org/TR/2001/REC-SVG-20010904/DTD/svg10.dtd">
<svg version="1.0" xmlns="http://www.w3.org/2000/svg" width="980.000000pt" height="974.000000pt" viewBox="0 0 980.000000 974.000000" preserveAspectRatio="xMidYMid meet">

<g transform="translate(0.000000,974.000000) scale(0.100000,-0.100000)" fill="#69b79a" stroke="none">
<path d="M8335 9713 c-174 -37 -320 -124 -468 -281 -56 -59 -214 -221 -352 -359 l-249 -253 -1501 -2 -1501 -3 -75 -37 c-40 -20 -97 -56 -124 -80 -47 -40 -912 -916 -3055 -3092 -573 -581 -841 -860 -877 -913 -142 -205 -168 -409 -78 -603 34 -73 51 -91 673 -710 1402 -1395 3295 -3256 3342 -3286 119 -75 310 -104 463 -70 91 20 229 86 316 151 35 26 229 208 430 405 429 419 3329 3341 3377 3403 41 53 69 131 84 234 8 54 10 365 8 1003 -3 854 -4 928 -20 960 -36 71 -75 100 -136 100 -74 0 -127 -40 -159 -120 -16 -42 -18 -117 -23 -995 -3 -649 -8 -956 -16 -968 -17 -29 -1789 -1818 -2776 -2803 -937 -935 -998 -992 -1111 -1031 -66 -23 -178 -22 -231 1 -38 17 -206 182 -3164 3106 -402 397 -735 734 -749 758 -52 89 -16 211 105 346 118 132 3809 3870 3840 3889 28 16 110 17 1323 17 l1292 0 -219 -222 c-239 -243 -319 -345 -408 -518 -101 -198 -131 -317 -130 -525 1 -129 4 -164 27 -248 55 -204 175 -405 344 -573 125 -125 177 -154 276 -154 65 0 71 2 102 33 46 46 55 106 25 175 -16 38 -45 72 -115 137 -164 150 -263 304 -307 476 -17 69 -20 103 -16 194 6 127 33 221 101 348 83 155 156 237 723 802 303 303 627 629 720 725 148 154 178 180 238 209 225 107 458 66 751 -133 119 -80 279 -240 334 -333 91 -153 115 -321 70 -483 -41 -150 -55 -168 -565 -730 -262 -289 -491 -545 -509 -570 -60 -81 -65 -162 -13 -218 55 -58 118 -66 207 -27 52 24 94 67 546 567 270 297 503 559 518 582 46 68 103 186 130 271 125 395 -12 796 -376 1101 -222 187 -456 308 -675 350 -94 18 -277 17 -367 -3z"/>
</g>
</svg>