<svg id="Layer_1" data-name="Layer 1" fill="#69b79a" xmlns="http://www.w3.org/2000/svg" viewBox="0 0 980 978.96"><path d="M475.71.57C376.11,10.91,301.6,39.26,225.75,96c-25.48,19-70.68,64.55-90.41,91.17C76.16,267,43.4,359.32,41.49,453l-.57,25.48,6.32,5.75,6.13,5.55H244.53l1.34,20.5c2.3,39.07,3.83,46.93,10.53,52.67,7.09,6.51,15.51,6.89,24.33,1.53,3.45-2.11,6.7-5.94,7.47-8.43.57-2.68.38-18.58-.57-35.63l-1.53-30.65h204V895.83l-7.29-1.15a21.76,21.76,0,0,0-25.28,21.26c0,7.28,5,15.9,11.11,19,12.45,6.32,72.21,5.36,117.22-1.92C686,916.7,778.73,867.66,850.18,793c34.86-36.2,60-72.4,82.36-118.37C962.61,613.1,977.17,554.68,979.66,485c5-128.91-44.82-254.94-137.33-347.46C769.74,64.91,681.63,20.66,576.85,4.19,558.84,1.33,491.61-1.16,475.71.57ZM490.08,123v81.41H413.46c-64.17,0-76.62-.38-76.62-2.68,0-5,24.33-50.57,37.16-70.1C395.65,99.22,428.21,67.81,453.68,55c6.51-3.45,31.22-12.45,36-13.41C489.89,41.56,490.08,78.14,490.08,123ZM556,49.6c37.54,15.71,75.66,53.63,104.77,104.2,8.24,14.37,24.71,47.5,24.71,50,0,.38-34.67.38-77,.19l-77.19-.57-.57-80.26-.38-80.26,7.85,1.34A97,97,0,0,1,556,49.6ZM364.62,74.5c-22.6,24.9-51.14,72.79-70.3,117.8l-5.17,12.07H173.84l3.83-5.36c7.85-11.11,39.65-43.29,57.46-58.23A426,426,0,0,1,315.2,87.92c20.88-10.73,54.4-25.09,58.61-25.28C374.77,62.63,370.56,68,364.62,74.5ZM692,80.63c22.6,10.54,52.87,28.92,75.85,45.78,18,13.41,72,65.32,76.43,73.74l2.3,4.21L788.7,204,731,203.41l-10-23.18C705.57,143.84,683.16,106.68,661.7,81c-16.86-20.3-16.86-19.15-1.15-13.41C668.21,70.29,682.39,76.22,692,80.63ZM274.79,248.8c-14.94,51.91-25.28,115.69-29.11,180.05l-1.15,20.69H82.1v-4.41c.19-24.71,9.58-73.94,21.26-109.37,8.43-25.67,27.39-68.19,37.92-85l4-6.13H275.93Zm215.29,98.26V449.54h-203v-15.9c0-44.25,13.22-124.12,28.92-176l4-13H490.07V347.06Zm214.33-90.59c14.94,45.59,25.09,104.2,30.07,175.45l1.15,17.62-102.09-.38-102.28-.58-.57-102.09-.38-101.9H700.39ZM887,264.13c13.79,25.28,21.07,42.33,31.22,73.17,10.92,33.52,20.11,80.64,20.11,103.82v8.43H776.05l-1.34-25.47c-2.49-49.61-10.54-104.39-22.22-150.94-3.06-12.26-6.13-23.75-6.9-25.47-1.15-2.87,4.6-3.06,64.74-3.06H876ZM735.25,493c0,1.92-1,15.13-1.92,29.31-4.21,56.7-13.41,108.6-28,156.68l-4.79,15.71-84.66-.38-84.66-.57-.57-102.09-.38-101.9H632.78C729.12,489.76,735.25,490,735.25,493Zm203,5.75c-.19,24.32-9.58,71.83-21.45,107.26-7.47,22.79-26.43,64.36-36.58,80.45l-5.17,8.24H809.77c-61.29,0-65.12-.19-64.17-3.45,14.17-45.21,26.24-117.42,29.11-176.22l1.34-25.28H938.28v9ZM683.73,739.53c-5.17,13.41-24.71,49-36.58,67-30.84,46-75.28,82-109.75,88.3l-7.09,1.34V734.93H685.45Zm158.6,1.54c-2.49,3.45-15.71,17.62-29.5,31.22a419.69,419.69,0,0,1-75.66,61.1c-17.62,11.3-59.19,31.6-78.34,38.5l-14.37,5,8.62-9.19c26.43-28.16,53.63-73.74,75.08-125.65l3.07-7.09h115.3Z"/><path d="M11.8,532.67C.5,537.84-1,544,.5,579.6,6.44,724,55.47,854.27,131.13,926.67c19,17.82,28.73,24.71,51.33,35.43C210,975.13,228.81,979,263.1,979c23-.19,31.6-1,43.48-4.21,34.48-9.39,62.63-25.28,86.77-49.23,69-68,74.32-175.45,12.83-251.88-29.88-37.35-64.55-51.14-174.69-69.91C112.17,583.62,76.92,572.13,39.76,541.1,27.12,530.75,20.8,528.65,11.8,532.67ZM97.61,617c27,8.81,54,14.75,120.67,26,104.39,18,127.57,25.86,151.51,51.52,14.94,16.09,23.18,29.69,30.84,51.33,5.75,15.9,6.13,18.39,6.13,45.59,0,32.75-1.92,41.37-14.75,67.61-5,10.15-8.81,15.71-10.92,15.71-5.17,0-35.24-17.24-59.19-33.9-25.28-17.62-70.49-53.44-103.82-82.36-23.75-20.69-28.16-23.56-34.48-23.56-11.88,0-22.6,13.41-20.11,24.9C166.75,774.4,279,865,332.62,896.41l19.73,11.49L347,911.54c-11.11,7.66-31.6,17.05-46,21.07-19.73,5.55-56.12,5.94-76.23.76-29.88-7.85-52.29-21.45-74.51-45.39C92.05,825.35,53.74,725,42.83,607.18l-1.34-14,18,8.62A395.61,395.61,0,0,0,97.61,617Z"/></svg>