<svg id="Layer_1" data-name="Layer 1" xmlns="http://www.w3.org/2000/svg" viewBox="0 0 992 992"><defs><style>.cls-1{stroke:#000;stroke-miterlimit:10;stroke-width:12px;}</style></defs><path class="cls-1" d="M365.1,589.4,60.2,894.3,59,683.7a26.44,26.44,0,0,0-26.5-26.3h-.2A26.46,26.46,0,0,0,6,684L7.8,984.2,308.1,986h.2a26.45,26.45,0,0,0,.2-52.9L97.8,931.8,402.7,626.9a26.55,26.55,0,0,0-37.6-37.5Zm243-179.1a26.11,26.11,0,0,0,18.7-7.8L931.7,97.6,933,308.3a26.44,26.44,0,0,0,26.5,26.3h.2A26.48,26.48,0,0,0,986,307.9L984.2,7.7,684,6h-.2a26.5,26.5,0,0,0-.2,53l210.7,1.3L589.4,365.1a26.62,26.62,0,0,0,0,37.5A26.34,26.34,0,0,0,608.1,410.3Zm351.6,247h-.2A26.5,26.5,0,0,0,933,683.6l-1.3,210.7L626.9,589.4a26.52,26.52,0,0,0-37.5,37.5L894.3,931.8,683.6,933a26.45,26.45,0,0,0,.2,52.9h.2l300.3-1.8L986,684A26.48,26.48,0,0,0,959.7,657.3ZM402.6,365.1a26.55,26.55,0,0,1-18.7,45.3,26.11,26.11,0,0,1-18.7-7.8L60.3,97.7,59,308.4a26.5,26.5,0,0,1-26.5,26.3h-.2A26.48,26.48,0,0,1,6,308L7.8,7.8,308.1,6h.2a26.5,26.5,0,0,1,.2,53L97.8,60.3Z"/></svg>