<svg id="Layer_1" data-name="Layer 1" xmlns="http://www.w3.org/2000/svg" viewBox="0 0 980 726.3"><defs><style>.cls-1{fill:#65b597;}</style></defs><path class="cls-1" d="M363.76,2.63C330.54,12.4,284.87,29,261.18,40.24,110.25,112.05,18.66,241.25,2.54,406.11c-14.41,146.3,33,256,130.18,300.9C167.65,722.89,186,726.3,238,726c42-.25,48.6-.73,70.58-6.59,104.29-27.85,163.63-113.09,157-225.93-1.95-33.71-8.55-59.59-22.71-88.41-9.52-19.54-14.9-26.62-32.48-44.21-36.64-36.39-76-51.53-134.57-51.78-59.31-.19-99.61,14.7-134.81,50.12-10.5,10.5-19.54,19.05-20.27,19.05-2.69,0-1-18.32,3.91-40.79,16.85-77.91,57.88-146.54,115.52-192.7,37.86-30.28,82.31-54,136-71.8,36.88-12.46,37.37-12.7,41.28-22,5.37-13.19-3.91-39.57-16.85-47.14C392.83-.79,377.2-1.28,363.76,2.63Z" transform="translate(0 0)"/><path class="cls-1" d="M869.33,5.8C727.67,44.88,617.52,131.58,561.59,247.59c-54.7,113.33-61.79,259.63-17.09,354.64,12,25.4,21.49,39.32,41.28,60.32,27.11,28.09,60.08,47.38,100.38,58.13,18.07,4.88,26.62,5.62,64.72,5.62,34.19,0,48.36-1,63.5-4.64,86.21-19.78,142.39-74.74,161.68-158,2.93-13.19,4.15-28.57,3.91-57.15,0-46.4-4.15-65.21-21.74-101.36-9.53-19.54-14.9-26.62-32.48-44.21-36.88-36.39-76.2-51.53-134.57-51.78-62-.24-107,17.34-139.7,54.46-7.08,8.06-13.92,14.66-15.14,14.66-3.42,0,0-26.13,7.08-54,25.16-99.16,84.75-173.9,177.07-222,17.83-9.28,73.27-31.75,78.16-31.75,1.22,0,8.3-2.2,15.88-5.13,21-7.81,24.67-18.32,15.63-42.5C921.11-1,907.92-4.94,869.33,5.8Z" transform="translate(0 0)"/></svg>