<svg id="Layer_1" data-name="Layer 1" fill="#69b79a" xmlns="http://www.w3.org/2000/svg" viewBox="0 0 983 983"><defs><style>.cls-1{stroke:#69b79a;stroke-miterlimit:10;stroke-width:3px;}</style></defs><path class="cls-1" d="M491.5,1.5a490,490,0,1,0,490,490,488.88,488.88,0,0,0-490-490Zm0,939.2c-247,0-449.2-202.2-449.2-449.2S244.5,42.3,491.5,42.3,940.7,244.5,940.7,491.5,738.5,940.7,491.5,940.7Z"/><path class="cls-1" d="M746.7,607.9c-10.2-4.1-22.5-2-26.5,8.2-44.9,87.7-132.7,140.8-228.7,140.8-98,0-183.7-53.1-228.7-140.9-4.1-10.2-16.3-14.3-26.5-8.2-10.2,4.1-14.3,16.3-10.2,26.5,51,100,151.1,163.3,265.4,163.3,112.3,0,214.4-63.3,263.4-163.3,6.1-10.1,2-22.4-8.2-26.4Z"/><path class="cls-1" d="M389.4,389.4a61.25,61.25,0,1,1-61.3-61.3A61.31,61.31,0,0,1,389.4,389.4Z"/><path class="cls-1" d="M716.1,389.4a61.3,61.3,0,1,1-61.3-61.3A61.31,61.31,0,0,1,716.1,389.4Z"/></svg>