<svg id="Capa_1" data-name="Capa 1" xmlns="http://www.w3.org/2000/svg" viewBox="0 0 477.12 512"><defs><style>.cls-1{fill:#1e1e1e;}</style></defs><path class="cls-1" d="M238.56,288.39C84.72,288.39,0,361.17,0,493.31A18.68,18.68,0,0,0,18.69,512H458.43a18.69,18.69,0,0,0,18.69-18.69C477.12,361.17,392.4,288.39,238.56,288.39ZM38.05,474.63c7.35-98.81,74.71-148.87,200.51-148.87s193.16,50.06,200.52,148.87Z"/><path class="cls-1" d="M238.56,0C167.89,0,114.61,54.36,114.61,126.44c0,74.19,55.6,134.54,124,134.54s124-60.35,124-134.54C362.51,54.36,309.23,0,238.56,0Zm0,223.61C190.82,223.61,152,180,152,126.44c0-51.61,36.41-89.07,86.58-89.07,49.36,0,86.58,38.29,86.58,89.07C325.14,180,286.3,223.61,238.56,223.61Z"/></svg>